<?xml version="1.0" encoding="utf-8"?>
<!-- Generator: Adobe Illustrator 27.1.0, SVG Export Plug-In . SVG Version: 6.00 Build 0)  -->
<svg version="1.1" id="Capa_1" xmlns="http://www.w3.org/2000/svg" xmlns:xlink="http://www.w3.org/1999/xlink" x="0px" y="0px"
	 viewBox="0 0 1920 1080" style="enable-background:new 0 0 1920 1080;" xml:space="preserve">
<style type="text/css">
	.st0{fill:#E2E0D9;}
</style>
<g>
	<g>
		<path class="st0" d="M1632.93,791.51c0,23.71,12.53,42.82,34.14,55.21h138.2c38.07-20.15,59.41-58.63,59.41-109.15V709.6
			l-135.86,6.98C1671.9,719.59,1632.93,749.55,1632.93,791.51z"/>
		<g>
			<path class="st0" d="M-0.18,233.28v231.66c32.59-23.82,77.72-37.02,132.11-37.02c99.88,0,167.8,43.96,187.77,121.87v29.96h-88.89
				c-7-41.95-39.96-63.93-96.89-63.93c-57.94,0-93.9,22.97-93.9,60.93c0,32.96,27.97,53.94,78.91,58.93l69.91,6.99
				c96.89,9.98,151.84,62.93,151.84,144.83c0,21.58-3.85,41.41-11.16,59.21h78.95c-28.1-42.2-43.89-95.78-43.89-157.1
				c0-154.82,100.88-261.7,247.73-261.7c105.86,0,186.77,55.94,211.75,144.83v29.97h-87.91c-19.97-51.93-66.92-83.9-124.86-83.9
				c-84.89,0-144.83,69.91-144.83,168.8c0,77.14,36.48,136.65,92.35,159.09h103.52c35.86-14.09,63.45-42.56,73.82-79.18h87.91v29.96
				c-5.06,17.69-12.41,34.16-21.72,49.23h58c-5.47-15.46-8.4-32.28-8.4-50.22c0-90.89,72.9-155.82,183.78-161.81l147.84-7.99v-2
				c0-65.92-40.96-108.88-104.89-108.88c-51.93,0-93.89,27.97-107.88,72.91h-89.88v-29.96c24.96-78.91,99.88-130.86,204.77-130.86
				c122.85,0,195.77,71.92,195.77,192.78v186.79c0,22.36,0.01,33.58,5.55,39.23h86.26V233.28H-0.18z"/>
			<path class="st0" d="M1473.14,233.28v613.44h68.32c-5.47-15.46-8.4-32.28-8.4-50.22c0-90.89,72.9-155.82,183.78-161.81
				l147.85-7.99v-2c0-65.92-40.96-108.88-104.89-108.88c-51.93,0-93.9,27.97-107.88,72.91h-89.88v-29.96
				c24.96-78.91,99.88-130.86,204.77-130.86c67.36,0,119.66,21.66,153.21,61.12V234.16v-0.88H1473.14z"/>
		</g>
		<path class="st0" d="M159.88,732.57l-69.91-6.98c-36.3-3.48-66.6-13.55-90.15-29.24v79.18h23.23
			c6.24,34.37,24.22,58.18,53.45,71.19h128.48c23.61-10.82,36.83-28.73,36.83-52.22C241.8,759.54,212.83,737.57,159.88,732.57z"/>
		<path class="st0" d="M951.82,791.51c0,23.71,12.53,42.82,34.14,55.21h138.2c38.07-20.15,59.41-58.63,59.41-109.15V709.6
			l-135.86,6.98C990.79,719.59,951.82,749.55,951.82,791.51z"/>
	</g>
</g>
</svg>
