<?xml version="1.0" encoding="utf-8"?>
<!-- Generator: Adobe Illustrator 27.1.0, SVG Export Plug-In . SVG Version: 6.00 Build 0)  -->
<svg version="1.1" id="Capa_1" xmlns="http://www.w3.org/2000/svg" xmlns:xlink="http://www.w3.org/1999/xlink" x="0px" y="0px"
	 viewBox="0 0 1920 1080" style="enable-background:new 0 0 1920 1080;" xml:space="preserve">
<style type="text/css">
	.st0{fill:#E2E0D9;}
</style>
<g>
	<g>
		<g>
			<path class="st0" d="M541.95,1053.52c0-39.71-79.69-36.28-122.13-66.81v93.66h105.83
				C535.81,1074.75,541.95,1065.82,541.95,1053.52z"/>
			<path class="st0" d="M1025.4,1017.61v-8.85h-50.17c-42.3,0-65.91,12.79-65.91,39.84c0,14.59,6.68,25.32,17.95,31.77h61.67
				C1011.7,1069,1025.4,1045.11,1025.4,1017.61z"/>
			<path class="st0" d="M1377.04,1017.61v-8.85h-50.17c-42.3,0-65.91,12.79-65.91,39.84c0,14.59,6.68,25.32,17.95,31.77h61.67
				C1363.34,1069,1377.04,1045.11,1377.04,1017.61z"/>
			<path class="st0" d="M1325.39,905.46c-29.02,0-49.67,15.74-54.11,43.29l-46.73-3.45c8.36-52.62,51.65-77.23,101.82-77.23
				c26.41,0,49.74,6.63,67.03,19.94V106.77H419.82v779.29c16.01-11.53,38.69-17.99,66.06-17.99c49.68,0,89.03,22.14,95.92,68.87
				l-42.8,3.45c-4.91-26.57-28.03-35.91-53.12-35.91c-28.04,0-46.73,12.3-46.73,32.46c0,51.65,147.56,25.57,147.56,117.07
				c0,9.68-1.91,18.46-5.38,26.36h51.25c-15.93-21.51-24.75-50.23-24.75-84.4c0-78.21,46.24-127.9,118.54-127.9
				c57.55,0,100.34,33.95,110.18,91.99l-45.25,3.45c-8.36-38.37-34.93-57.07-65.42-57.07c-41.82,0-70.34,32.95-70.34,89.53
				c0,43.65,17.03,73.16,44,84.4h52.37c18.77-7.92,33.55-25.09,39.4-51.93l45.25,2.95c-3.21,19.07-9.96,35.46-19.54,48.99h50.53
				c-3.5-8.41-5.45-17.86-5.45-28.32c0-55.09,44.76-75.75,108.71-75.75h54.59v-20.16c0-31.48-19.18-50.67-51.65-50.67
				c-29.03,0-49.68,15.74-54.11,43.29l-46.73-3.45c8.36-52.62,51.65-77.23,101.82-77.23c55.58,0,97.88,29.03,97.88,89.04v123.26
				h51.61V754.94h47.22v325.43h47.74c-3.51-8.41-5.45-17.86-5.45-28.32c0-55.09,44.75-75.75,108.71-75.75h54.59v-20.16
				C1377.04,924.65,1357.86,905.46,1325.39,905.46z"/>
		</g>
		<g>
			<rect x="1286.63" y="0" class="st0" width="213.55" height="213.55"/>
		</g>
	</g>
</g>
</svg>
